<svg id="iconSVGlarge" width="180" height="180" viewBox="0 0 180 180" xmlns="http://www.w3.org/2000/svg">
          <defs>
            <linearGradient id="chipgI" x1="0" y1="0" x2="1" y2="1">
              <stop offset="0%" stop-color="#e4b86a"></stop>
              <stop offset="50%" stop-color="#c8922a"></stop>
              <stop offset="100%" stop-color="#9e6e18"></stop>
            </linearGradient>
            <linearGradient id="iconbgI" x1="0" y1="0" x2="0" y2="1">
              <stop id="ibg1" offset="0%" stop-color="#1c1c1c"></stop>
              <stop id="ibg2" offset="100%" stop-color="#0a0a0a"></stop>
            </linearGradient>
            <clipPath id="iconclipI"><rect id="iconCliprect" x="0" y="0" width="180" height="180" rx="40"></rect></clipPath>
          </defs>
          <!-- BG -->
          <rect id="iconbgRect" x="0" y="0" width="180" height="180" rx="40" fill="url(#iconbgI)"></rect>
          <rect x="0" y="0" width="180" height="180" rx="40" fill="none" stroke="#ffffff" stroke-width="0.8" opacity="0.07"></rect>
          <!-- Accent bar -->
          <rect id="iconAccent" x="0" y="138" width="180" height="42" fill="#ebb00f" clip-path="url(#iconclipI)"></rect>
          <!-- Chip centered -->
          <rect id="iconChip" x="34" y="44" width="64" height="50" rx="9" fill="url(#chipgI)"></rect>
          <rect x="34" y="44" width="64" height="50" rx="9" fill="none" stroke="#e4b86a" stroke-width="0.6" opacity="0.5"></rect>
          <line x1="34" y1="58" x2="98" y2="58" stroke="#8a5c10" stroke-width="0.9"></line>
          <line x1="34" y1="66" x2="98" y2="66" stroke="#8a5c10" stroke-width="0.9"></line>
          <line x1="34" y1="74" x2="98" y2="74" stroke="#8a5c10" stroke-width="0.9"></line>
          <line x1="34" y1="82" x2="98" y2="82" stroke="#8a5c10" stroke-width="0.9"></line>
          <line x1="54" y1="44" x2="54" y2="94" stroke="#8a5c10" stroke-width="0.9"></line>
          <line x1="66" y1="44" x2="66" y2="94" stroke="#8a5c10" stroke-width="0.9"></line>
          <line x1="78" y1="44" x2="78" y2="94" stroke="#8a5c10" stroke-width="0.9"></line>
          <rect x="54" y="58" width="24" height="24" rx="4" fill="#e4b86a" opacity="0.3"></rect>
          <!-- Contactless -->
          <g id="iconContactless">
            <path d="M110,56 Q124,69 110,82" fill="none" stroke="#ffffff" stroke-width="2.2" stroke-linecap="round" opacity="0.5"></path>
            <path d="M119,49 Q138,69 119,89" fill="none" stroke="#ffffff" stroke-width="2.2" stroke-linecap="round" opacity="0.3"></path>
            <path d="M128,42 Q153,69 128,96" fill="none" stroke="#ffffff" stroke-width="2.2" stroke-linecap="round" opacity="0.15"></path>
          </g>
          <!-- Circles -->
          <g id="iconCircles">
            <circle id="iconC1" cx="116" cy="114" r="20" fill="#ebb00f" opacity="0.95"></circle>
            <circle id="iconC2" cx="138" cy="114" r="20" fill="#d29700" opacity="0.75"></circle>
          </g>
          <!-- Wordmark -->
          <text id="iconWordmark" x="90" y="160" font-family="'Helvetica Neue',Arial,sans-serif" font-size="17" font-weight="700" letter-spacing="9" fill="#111111" text-anchor="middle">VALYUX</text>
        </svg>